PathFileType	4	(X/Y/Z)	/Users/itak/Documents/Research/Walk-IL/dataset/trc/00125_00007.trc
DataRate	CameraRate	NumFrames	NumMarkers	Units	OrigDataRate	OrigDataStartFrame	OrigNumFrames
100.000000	100.000000	4	53	mm	100.000000	545	727
Frame#	Time	RPSI			LPSI			L3			STRN			T10			C7			CLAV			RBAK			LBAK			LSHO			LUPA			LAEL			LAOL			LWTS			LWPS			LFRA			LIFD			LHPS			LHTS			RSHO			RUPA			RAEL			RAOL			RWTS			RWPS			RFRA			RIFD			RHTS			RHPS			RBHD			LFHD			RFHD			LBHD			LHIP			RHIP			RASI			LASI			LKNE			LTHI			LANK			LTIP			LTOE			LMT1			LMT5			LHEE			RKNE			RTHI			RANK			RTIP			RTOE			RMT1			RMT5			RHEE			
		X1	Y1	Z1	X2	Y2	Z2	X3	Y3	Z3	X4	Y4	Z4	X5	Y5	Z5	X6	Y6	Z6	X7	Y7	Z7	X8	Y8	Z8	X9	Y9	Z9	X10	Y10	Z10	X11	Y11	Z11	X12	Y12	Z12	X13	Y13	Z13	X14	Y14	Z14	X15	Y15	Z15	X16	Y16	Z16	X17	Y17	Z17	X18	Y18	Z18	X19	Y19	Z19	X20	Y20	Z20	X21	Y21	Z21	X22	Y22	Z22	X23	Y23	Z23	X24	Y24	Z24	X25	Y25	Z25	X26	Y26	Z26	X27	Y27	Z27	X28	Y28	Z28	X29	Y29	Z29	X30	Y30	Z30	X31	Y31	Z31	X32	Y32	Z32	X33	Y33	Z33	X34	Y34	Z34	X35	Y35	Z35	X36	Y36	Z36	X37	Y37	Z37	X38	Y38	Z38	X39	Y39	Z39	X40	Y40	Z40	X41	Y41	Z41	X42	Y42	Z42	X43	Y43	Z43	X44	Y44	Z44	X45	Y45	Z45	X46	Y46	Z46	X47	Y47	Z47	X48	Y48	Z48	X49	Y49	Z49	X50	Y50	Z50	X51	Y51	Z51	X52	Y52	Z52	X53	Y53	Z53	

546	5.45	-603.3866577148438	1108.209716796875	616.5307006835938	-493.0101623535156	1114.031005859375	538.6793212890625	-549.9913940429688	1148.897094726562	570.2566528320312	-432.7138366699219	1351.778686523438	749.203125	-570.5101928710938	1300.699340820312	539.0958862304688	-533.3729858398438	1592.796752929688	555.5877075195312	-447.0712280273438	1486.351440429688	714.796875	-641.4708251953125	1412.1953125	558.8125610351562	-453.7634582519531	1568.226196289062	494.3838500976562	-351.164306640625	1552.470458984375	530.1178588867188	-304.8532409667969	1420.87451171875	476.3153076171875	-272.2248840332031	1204.080932617188	478.9952697753906	-356.6029357910156	1185.525024414062	451.0521545410156	-237.1764221191406	976.4173583984375	632.3713989257812	-253.1378631591797	930.9609985351562	556.919921875	-251.9719696044922	1092.234008789062	508.0896606445312	-232.6549224853516	793.7473754882812	698.0288696289062	-230.3779144287109	865.0510864257812	597.4237060546875	-211.6806488037109	892.8662109375	659.2904663085938	-658.0411987304688	1581.752807617188	701.2254028320312	-723.1008911132812	1510.512451171875	720.8190307617188	-758.020263671875	1216.932373046875	722.5601196289062	-676.4193725585938	1211.469970703125	669.3681640625	-683.3076782226562	972.365966796875	842.2147216796875	-748.8240356445312	957.311767578125	793.5615234375	-762.7122192382812	1144.260009765625	751.4684448242188	-661.392578125	777.5792846679688	851.260009765625	-676.7396240234375	863.7485961914062	871.4658203125	-737.4464111328125	857.7767333984375	828.0343627929688	-545.4833374023438	1784.640014648438	654.8306274414062	-327.7060852050781	1801.001342773438	675.0580444335938	-415.4800109863281	1827.518310546875	767.6839599609375	-460.4013061523438	1762.149047851562	553.5471801757812	-349.0845642089844	1026.786743164062	552.9984741210938	-623.679931640625	1020.211547851562	791.82421875	-539.0027465820312	1095.763427734375	824.6592407226562	-326.5118103027344	1093.930908203125	667.6787109375	-421.7461853027344	525.888671875	648.4099731445312	-388.118408203125	666.5775146484375	597.6619873046875	-545.8599853515625	36.61530685424805	620.610107421875	-477.7012023925781	274.104736328125	583.00537109375	-511.3781433105469	38.0433464050293	856.6011352539062	-573.125732421875	42.87405776977539	792.6737060546875	-476.8286743164062	42.11980056762695	728.3621826171875	-629.7982177734375	37.42438125610352	580.8977661132812	-492.5711059570312	565.3735961914062	927.30419921875	-567.435791015625	830.3106689453125	867.403564453125	-752.5471801757812	157.5785980224609	704.7122802734375	-562.4190063476562	451.2896118164062	887.3303833007812	-623.5728149414062	68.23958587646484	872.2534790039062	-610.449462890625	69.42304229736328	801.158447265625	-726.1088256835938	103.6422119140625	823.4542846679688	-729.502685546875	176.2476806640625	636.3602905273438	
547	5.46	-601.163818359375	1108.515869140625	625.0794677734375	-492.4662475585938	1113.94091796875	544.792724609375	-548.7391357421875	1148.824951171875	577.408935546875	-427.8670959472656	1351.968017578125	753.8931274414062	-569.3168334960938	1300.72314453125	546.0196533203125	-531.986572265625	1592.831665039062	561.9111328125	-442.9181518554688	1486.530395507812	719.7821655273438	-639.771728515625	1412.09521484375	567.1333618164062	-453.1645202636719	1568.35888671875	499.5113220214844	-349.9606018066406	1552.712036132812	533.5592651367188	-304.2238464355469	1421.063232421875	479.5220031738281	-270.6410522460938	1204.2783203125	482.9074096679688	-355.00830078125	1185.418334960938	455.5940856933594	-234.1776580810547	977.4003295898438	637.1804809570312	-250.3151245117188	931.5603637695312	561.9700317382812	-249.9251556396484	1092.607421875	512.370849609375	-228.8488464355469	795.0533447265625	703.6626586914062	-227.1616973876953	865.9234008789062	602.6812744140625	-208.2397155761719	894.0730590820312	664.330810546875	-654.008544921875	1581.755493164062	709.81884765625	-718.9275512695312	1510.505004882812	730.3309326171875	-754.0418090820312	1217.021484375	732.85009765625	-673.867919921875	1211.486206054688	677.9649658203125	-677.9171752929688	972.31640625	851.2030029296875	-744.3236083984375	957.5104370117188	803.6162109375	-758.4779052734375	1144.369873046875	761.7778930664062	-656.5036010742188	777.4415893554688	859.903564453125	-671.2392578125	863.6927490234375	880.3847045898438	-732.6710205078125	858.1543579101562	837.9353637695312	-542.8292236328125	1784.579467773438	661.2615966796875	-324.8489685058594	1801.397094726562	679.0703125	-411.7608337402344	1827.650512695312	772.6932983398438	-458.784423828125	1762.359375	558.9848022460938	-348.133056640625	1026.6376953125	556.3872680664062	-617.7571411132812	1020.992736816406	801.0253295898438	-532.3128051757812	1096.315307617188	831.7354125976562	-323.0588989257812	1093.916381835938	670.4058227539062	-420.3833618164062	525.7374267578125	651.091796875	-386.9961242675781	666.5977783203125	600.4710693359375	-546.0575561523438	36.75120162963867	620.7161254882812	-477.4774475097656	274.3817138671875	584.4541625976562	-511.3285522460938	37.8959846496582	856.6959838867188	-573.3623046875	42.573486328125	792.6765747070312	-476.8635864257812	42.06673431396484	728.35986328125	-630.0457763671875	37.67446899414062	581.0439453125	-480.9368896484375	568.143310546875	937.0244750976562	-559.002197265625	832.1950073242188	876.9647216796875	-739.4259033203125	149.8865661621094	732.3764038085938	-550.18212890625	451.9994812011719	901.7195434570312	-604.2752075195312	68.65469360351562	899.4110717773438	-592.9715576171875	67.77662658691406	828.1375122070312	-708.569580078125	100.9204406738281	852.2761840820312	-718.5914306640625	166.4674072265625	662.821533203125	
548	5.47	-598.9849853515625	1108.821655273438	633.4367065429688	-491.8300476074219	1113.853759765625	550.9024658203125	-547.5247192382812	1148.740844726562	584.4417724609375	-422.9999694824219	1352.12255859375	758.5758666992188	-568.0560913085938	1300.689331054688	552.9818115234375	-530.5731811523438	1592.809204101562	568.2203369140625	-438.73876953125	1486.675659179688	724.7503051757812	-637.9509887695312	1411.95263671875	575.4678344726562	-452.5514526367188	1568.446411132812	504.6396179199219	-348.7290649414062	1552.897338867188	537.0151977539062	-303.5983581542969	1421.192260742188	482.75634765625	-269.0848693847656	1204.421264648438	486.8173828125	-353.4609375	1185.273315429688	460.1335754394531	-231.2467346191406	978.1793212890625	641.7623291015625	-247.6023406982422	932.028564453125	566.7568969726562	-247.9319305419922	1092.89697265625	516.5582275390625	-225.1820983886719	796.0867919921875	708.8740844726562	-224.0728454589844	866.6201171875	607.6021728515625	-204.9034576416016	895.0302124023438	669.0562744140625	-649.9093017578125	1581.723510742188	718.3475341796875	-714.6627807617188	1510.463989257812	739.7852172851562	-749.976318359375	1217.08935546875	743.1649169921875	-671.3409423828125	1211.476440429688	686.525146484375	-672.463134765625	972.2571411132812	860.245849609375	-739.7642822265625	957.7509765625	813.7555541992188	-754.1282958984375	1144.471069335938	772.1370849609375	-651.5624389648438	777.2705078125	868.5747680664062	-665.6611938476562	863.60498046875	889.3085327148438	-727.7996826171875	858.530517578125	847.8875732421875	-540.115966796875	1784.510498046875	667.6893310546875	-321.94287109375	1801.711303710938	683.0655517578125	-407.9736022949219	1827.72705078125	777.6781616210938	-457.1030578613281	1762.537963867188	564.4207763671875	-347.1310729980469	1026.466064453125	559.8473510742188	-611.8085327148438	1021.73828125	810.05908203125	-525.6243286132812	1096.822998046875	838.70947265625	-319.6369934082031	1093.860961914062	673.18603515625	-418.9601440429688	525.5646362304688	653.9302368164062	-385.8343200683594	666.572021484375	603.4240112304688	-546.2693481445312	36.90133285522461	620.8300170898438	-477.1912231445312	274.6496276855469	586.0364379882812	-511.310546875	37.72177124023438	856.7767944335938	-573.6187133789062	42.27047729492188	792.6841430664062	-476.9239196777344	42.01990127563477	728.3626708984375	-630.2999877929688	37.92596435546875	581.2039184570312	-469.6627197265625	570.701904296875	946.2396240234375	-550.6243896484375	833.9636840820312	886.2201538085938	-725.1026000976562	141.9898223876953	759.6946411132812	-538.0131225585938	452.5236206054688	915.6065063476562	-583.6193237304688	69.25100708007812	925.5336303710938	-574.1300659179688	66.35678863525391	854.1336059570312	-689.6704711914062	98.07825469970703	880.2843627929688	-706.616455078125	156.5791931152344	689.033203125	
549	5.48	-596.7887573242188	1109.109741210938	641.6323852539062	-491.0722351074219	1113.768676757812	557.0240478515625	-546.2670288085938	1148.638671875	591.4092407226562	-418.1098937988281	1352.239135742188	763.2553100585938	-566.7061157226562	1300.597778320312	559.98779296875	-529.1129760742188	1592.72314453125	574.5264892578125	-434.5312805175781	1486.78271484375	729.70361328125	-636.0023803710938	1411.762573242188	583.81396484375	-451.9229125976562	1568.482177734375	509.7709350585938	-347.4706420898438	1553.015869140625	540.5025634765625	-302.9729919433594	1421.257690429688	486.0227966308594	-267.5633544921875	1204.500732421875	490.7250366210938	-351.9752807617188	1185.085205078125	464.6825256347656	-228.3740692138672	978.7453002929688	646.115478515625	-245.0077362060547	932.3563232421875	571.2857666015625	-245.9922637939453	1093.09912109375	520.6557006835938	-221.6417694091797	796.8367919921875	713.6640625	-221.1145477294922	867.1282348632812	612.1896362304688	-201.6684722900391	895.726318359375	673.4649658203125	-645.763427734375	1581.646850585938	726.788330078125	-710.3048706054688	1510.386108398438	749.17333984375	-745.8228149414062	1217.133422851562	753.5011596679688	-668.715576171875	1211.425170898438	695.1316528320312	-666.9342041015625	972.1860961914062	869.341552734375	-735.1363525390625	958.0330200195312	823.9817504882812	-749.6659545898438	1144.567993164062	782.5391845703125	-646.5404663085938	777.0718994140625	877.2880249023438	-659.98828125	863.4896240234375	898.2493896484375	-722.8107299804688	858.8665771484375	857.8870239257812	-537.3442993164062	1784.425048828125	674.12109375	-318.9892578125	1801.949340820312	687.048828125	-404.1130676269531	1827.747802734375	782.6397094726562	-455.3606567382812	1762.679931640625	569.85986328125	-346.0842590332031	1026.255126953125	563.3773193359375	-605.8471069335938	1022.440002441406	818.92138671875	-518.9572143554688	1097.274169921875	845.5824584960938	-316.2373962402344	1093.76171875	676.0310668945312	-417.4594421386719	525.3613891601562	656.9327392578125	-384.6007385253906	666.498291015625	606.5277709960938	-546.4862670898438	37.06597518920898	620.9474487304688	-476.8412780761719	274.9024047851562	587.7595825195312	-511.3096313476562	37.52674102783203	856.843994140625	-573.8447875976562	42.00624084472656	792.7091674804688	-477.0044250488281	41.97924423217773	728.3693237304688	-630.5548095703125	38.18350982666016	581.374755859375	-458.8215026855469	573.0208740234375	954.9484252929688	-542.3367919921875	835.594970703125	895.1727905273438	-709.6016235351562	133.9689178466797	786.5828247070312	-525.9717407226562	452.8640747070312	928.9580078125	-561.676025390625	70.0400390625	950.50732421875	-554.015625	65.18154144287109	879.0484619140625	-669.4415893554688	95.17803192138672	907.41796875	-693.5901489257812	146.6445770263672	714.90625	
